<?xml version="1.0" encoding="UTF-8"?> <svg xmlns="http://www.w3.org/2000/svg" width="242" height="50" viewBox="0 0 242 50" fill="none"><g clip-path="url(#clip0_3410_93238)"><path d="M34.7795 37.8879V39.1799H18.2122L18.1415 37.8348C21.8204 37.8348 22.3393 35.9941 21.6672 33.6991L19.3324 25.2625H10.0052L9.69274 26.0885C7.40516 34.6785 7.69405 37.8407 14.2443 37.8407L14.3151 39.1858H0V38.0059C4.7992 38.0059 5.85455 32.8496 8.00653 25.351L12.7173 9.06195C14.0497 4.71386 13.8139 1.12094 9.50996 1.12094V0H21.1424L30.2927 34.7021C31.012 37.3333 32.1322 37.8879 34.7795 37.8879ZM19.0199 23.7345L14.8929 8.059L10.3649 23.7345H19.0199Z" fill="white"></path><path d="M40.2271 39.5988C38.4348 39.5988 37.0375 39.0147 36.0411 37.8407C35.0447 36.6726 34.3313 34.8024 34.3313 32.2419L34.5435 13.6873H31.2124V12.9263L32.651 12.708C33.5177 12.4543 34.2723 12.0885 34.9032 11.6106C35.534 11.1386 36.159 10.4956 36.7722 9.68732L40.2212 4.69617H40.6398L40.516 12.3776H45.439V13.6873H40.4747V33.2271C40.4747 34.5074 40.6929 35.4749 41.1292 36.1357C41.5655 36.7965 42.1197 37.1209 42.7918 37.1209C43.3814 37.1209 43.9002 36.9322 44.3483 36.5428C44.7964 36.1593 45.2445 35.6342 45.6925 34.9794L46.1112 35.528C45.551 36.7729 44.7787 37.7581 43.8 38.4897C42.8154 39.2212 41.6244 39.587 40.2271 39.587V39.5988Z" fill="white"></path><path d="M40.2273 39.7109C38.4114 39.7109 36.9728 39.1091 35.9587 37.9174C35.1687 36.9911 34.2253 35.2507 34.2253 32.2478L34.4376 13.7994H31.1064V12.8377L32.6335 12.6017C33.4707 12.354 34.2194 11.9882 34.8326 11.5221C35.4517 11.056 36.0707 10.4189 36.6839 9.62239L40.1624 4.58405H40.7461L40.6223 12.2655H45.5453V13.7935H40.581V33.2271C40.581 34.4779 40.7933 35.4395 41.2178 36.0767C41.6364 36.7079 42.1493 37.0147 42.792 37.0147C43.3521 37.0147 43.8532 36.8318 44.2777 36.4661C44.7199 36.0885 45.1621 35.5693 45.6043 34.9203L45.6868 34.7964L46.2351 35.5162L46.2115 35.5752C45.6455 36.8318 44.8555 37.8407 43.865 38.5781C42.8686 39.3215 41.6423 39.6932 40.2273 39.6932V39.7109ZM31.3305 13.587H34.6616L34.4435 32.2478C34.4435 35.1799 35.3573 36.8731 36.1238 37.7758C37.0907 38.9144 38.4762 39.4926 40.2273 39.4926C41.601 39.4926 42.7802 39.1327 43.7412 38.4189C44.6845 37.7168 45.4451 36.7492 45.9934 35.5575L45.6986 35.174C45.2741 35.7817 44.8437 36.2714 44.4192 36.6371C43.9534 37.0383 43.4051 37.2389 42.792 37.2389C42.0845 37.2389 41.4949 36.8908 41.0409 36.2006C40.5987 35.528 40.3688 34.531 40.3688 33.233V13.587H45.3331V12.4897H40.4042L40.528 4.80823H40.2745L36.8549 9.75809C36.2299 10.5722 35.5932 11.2271 34.9564 11.705C34.3197 12.1888 33.5532 12.5604 32.6747 12.82L31.3128 13.0265V13.5929L31.3305 13.587Z" fill="white"></path><path d="M46.6296 38.7906V38.0295L47.1426 37.8112C48.1626 37.3746 48.6755 36.6785 48.6755 35.2979V6.177C48.6755 5.41594 48.5753 4.84957 48.3748 4.48379C48.1744 4.11801 47.7911 3.84662 47.2251 3.66373L46.5884 3.44544V2.90267L54.082 0.560486L54.7659 1.05016L54.5949 8.74338V14.3363C55.892 13.3451 56.6761 13.0207 57.7492 12.4543C58.9578 11.8112 60.2254 11.7463 61.6168 11.7463C63.4622 11.7463 65.8795 12.6195 66.9761 13.9646C68.0669 15.3097 67.666 17.18 67.666 19.9823V35.3628C67.666 36.0885 67.778 36.6726 68.0079 37.1092C68.232 37.5457 68.6329 37.6578 69.1989 37.8761L69.5408 38.0413V38.8024H59.5828V38.0413L60.0957 37.8761C61.1157 37.4395 61.6286 36.7257 61.6286 35.3097V18.1829C61.6286 16.7316 61.4341 15.0561 61.0567 14.5133C60.6794 13.9705 60.0014 13.5693 59.0345 13.5693C58.4095 13.5693 58.0793 13.4631 56.9886 13.8466C56.234 14.1121 55.497 14.3009 54.7305 15.0679V35.4159C54.7305 36.8319 55.2435 37.528 56.2634 37.9292L56.6054 38.0413V38.8024H46.6473L46.6296 38.7906Z" fill="white"></path><path d="M69.6354 38.8968H59.4592V37.9528L60.0429 37.764C61.0747 37.3216 61.4992 36.6077 61.4992 35.298V18.1711C61.4992 16.8142 61.3282 15.1033 60.945 14.5605C60.5381 13.9823 59.8542 13.6637 59.0111 13.6637C58.8932 13.6637 58.793 13.6637 58.6869 13.6578C58.2506 13.646 57.8673 13.6283 57.0006 13.9351C56.9181 13.9646 56.8356 13.9941 56.753 14.0236C56.0927 14.2478 55.4736 14.4661 54.8192 15.1033V35.4042C54.8192 36.708 55.2437 37.4101 56.2814 37.8171L56.6882 37.9469V38.8909H46.512V37.9528L47.0898 37.705C48.1333 37.2567 48.5578 36.5605 48.5578 35.2921V6.17702C48.5578 5.43366 48.4635 4.88498 48.2748 4.5369C48.0921 4.20062 47.7265 3.94103 47.1841 3.76994L46.4707 3.52805V2.82599L46.5473 2.80239L54.0881 0.442505L54.8605 0.997077L54.6895 8.74339V14.118C55.6446 13.4042 56.3167 13.062 57.0891 12.6667C57.2836 12.5664 57.4782 12.4661 57.6905 12.354C58.9404 11.6873 60.2551 11.6342 61.6053 11.6342C63.374 11.6342 65.8974 12.4779 67.0471 13.8938C67.9138 14.9617 67.8667 16.3245 67.8018 18.2006C67.7841 18.7611 67.7605 19.3393 67.7605 19.9764V35.357C67.7605 36.0649 67.8725 36.6372 68.0907 37.0561C68.2794 37.416 68.5918 37.5339 69.0694 37.7109L69.2286 37.7699L69.6354 37.9646V38.8968ZM59.6774 38.6844H69.4231V38.1003L69.146 37.9646L68.9986 37.9115C68.5152 37.7286 68.132 37.587 67.9079 37.1505C67.6721 36.7021 67.5542 36.0944 67.5542 35.357V19.9764C67.5542 19.3334 67.5778 18.7552 67.5954 18.1947C67.6603 16.3599 67.7075 15.0325 66.8938 14.0295C65.7854 12.6667 63.3446 11.8525 61.623 11.8525C60.3023 11.8525 59.017 11.9056 57.8084 12.5487C57.5961 12.6608 57.4016 12.7611 57.207 12.8614C56.3993 13.2744 55.7036 13.6342 54.6659 14.4248L54.4949 14.5546V8.74929L54.6659 1.11507L54.0763 0.690292L46.7124 2.99708V3.38646L47.2784 3.58115C47.868 3.76994 48.2748 4.06492 48.4871 4.4484C48.6934 4.82599 48.7996 5.41596 48.7996 6.18882V35.3157C48.7996 36.6667 48.322 37.4455 47.2018 37.9292L46.7537 38.118V38.7021H56.4995V38.1298L56.2342 38.0413C55.1081 37.5988 54.6305 36.8201 54.6305 35.4278V15.0207L54.66 14.9912C55.3616 14.295 56.0455 14.059 56.7059 13.8289C56.7884 13.7994 56.8709 13.7699 56.9535 13.7404C57.8614 13.4219 58.2565 13.4337 58.7163 13.4455C58.8166 13.4455 58.9168 13.4514 59.0288 13.4514C59.9427 13.4514 60.6914 13.7994 61.1395 14.4366C61.5522 15.0207 61.735 16.7316 61.735 18.1711V35.298C61.735 36.6903 61.2574 37.4867 60.1372 37.9646L59.6891 38.1062V38.6785L59.6774 38.6844Z" fill="white"></path><path d="M69.5293 38.7906V37.8171L70.5139 37.5989C71.5221 37.1623 72.0291 36.6844 72.0291 35.298V6.12393C72.0291 5.39826 71.9171 4.84369 71.6931 4.46021C71.469 4.07673 71.074 3.79944 70.5139 3.61655L69.9656 3.45136V2.90859L77.6596 0.566406L78.1667 1.05608L77.9957 8.6903V27.3452C77.9957 28.6903 78.0016 30.0295 78.0193 31.3511C78.0311 32.6785 78.0429 33.9941 78.0429 35.3039C78.0429 36.0295 78.1549 36.6254 78.3789 37.0738C78.603 37.5281 78.9803 37.4337 79.5168 37.652L80.0651 37.8171V38.7906H69.5293Z" fill="white"></path><path d="M80.1714 38.8968H69.4233V37.7286L70.4964 37.4926C71.4574 37.0738 71.9291 36.6372 71.9291 35.298V6.12392C71.9291 5.42186 71.8229 4.87908 71.6048 4.5133C71.3925 4.15932 71.0211 3.88793 70.4846 3.71684L69.8655 3.52805V2.82599L77.6952 0.442505L78.2789 1.00888L78.1079 8.69029V27.3393C78.1079 28.7257 78.1138 30.0708 78.1315 31.3452C78.1433 32.6667 78.1551 34 78.1551 35.298C78.1551 36.0059 78.2671 36.59 78.4793 37.0207C78.609 37.2862 78.7977 37.3334 79.0866 37.4042C79.2281 37.4396 79.3873 37.4809 79.5642 37.5516L80.1773 37.7345V38.8968H80.1714ZM69.6356 38.6844H79.9533V37.8997L79.4816 37.7581C79.3106 37.6873 79.1573 37.6519 79.0276 37.6165C78.7211 37.5398 78.4557 37.475 78.2848 37.121C78.0548 36.6549 77.9369 36.0413 77.9369 35.3039C77.9369 34 77.931 32.6726 77.9133 31.3511C77.9015 30.0767 77.8897 28.7257 77.8897 27.3393V8.68439L78.0548 1.09147L77.6303 0.678493L70.0719 2.97938V3.36286L70.5435 3.50445C71.1272 3.69324 71.5458 3.99413 71.7817 4.39531C72.0175 4.79059 72.1354 5.36876 72.1354 6.11212V35.2921C72.1354 36.7316 71.5812 37.2449 70.5553 37.6873L69.6356 37.8938V38.6726V38.6844Z" fill="white"></path><path d="M90.8898 39.1977C88.6612 39.1977 86.7333 38.6313 85.0943 37.4986C83.4552 36.3658 82.1876 34.7552 81.2973 32.6667C80.4012 30.5782 79.959 28.1298 79.959 25.3216C79.959 22.5133 80.4365 20.0885 81.3858 18.0354C82.335 15.9823 83.638 14.4012 85.2947 13.2862C86.9514 12.1711 88.8145 11.6107 90.8957 11.6107C92.977 11.6107 94.8342 12.1593 96.4732 13.2567C98.1122 14.354 99.4093 15.9292 100.359 17.9823C101.308 20.0354 101.785 22.4838 101.785 25.3216C101.785 28.1593 101.337 30.6195 100.447 32.6903C99.5567 34.7611 98.295 36.3599 96.6678 37.4986C95.0405 38.6313 93.1185 39.1977 90.8898 39.1977ZM90.8898 38.118C91.9157 38.118 92.7352 37.7581 93.3484 37.0384C93.9616 36.3186 94.4097 35.0384 94.6868 33.2036C94.9639 31.3688 95.1054 28.7788 95.1054 25.4278C95.1054 22.0767 94.9639 19.4337 94.6868 17.5989C94.4097 15.764 93.9616 14.4838 93.3484 13.764C92.7352 13.0443 91.9157 12.6844 90.8898 12.6844C89.864 12.6844 89.0386 13.0443 88.4077 13.764C87.7768 14.4838 87.3229 15.764 87.0458 17.5989C86.7687 19.4337 86.6272 22.0413 86.6272 25.4278C86.6272 28.8142 86.7687 31.3688 87.0458 33.2036C87.3229 35.0384 87.7768 36.3186 88.4077 37.0384C89.0386 37.7581 89.864 38.118 90.8898 38.118Z" fill="white"></path><path d="M90.8901 39.3038C88.6497 39.3038 86.6805 38.7257 85.0296 37.587C83.3788 36.4484 82.0876 34.8024 81.1915 32.708C80.2953 30.6195 79.8413 28.1357 79.8413 25.3215C79.8413 22.5074 80.3248 20.0472 81.2799 17.9882C82.235 15.9292 83.5616 14.3186 85.2242 13.1918C86.8868 12.0708 88.7912 11.4985 90.8842 11.4985C92.9772 11.4985 94.8698 12.059 96.5206 13.1623C98.1714 14.2655 99.4921 15.8702 100.447 17.9292C101.402 19.9882 101.886 22.472 101.886 25.3156C101.886 28.1593 101.432 30.6549 100.536 32.7257C99.6395 34.8024 98.3542 36.4366 96.7211 37.5752C95.0879 38.7139 93.1246 39.292 90.8842 39.292L90.8901 39.3038ZM90.8901 11.7168C88.8442 11.7168 86.9811 12.2714 85.348 13.3746C83.7149 14.472 82.4119 16.059 81.4745 18.0826C80.5311 20.1121 80.0595 22.5487 80.0595 25.3274C80.0595 28.1062 80.5075 30.5664 81.3919 32.6254C82.2704 34.6844 83.538 36.295 85.1534 37.41C86.7689 38.5251 88.6968 39.0915 90.8901 39.0915C93.0833 39.0915 95.0054 38.5251 96.6031 37.41C98.2068 36.2891 99.4626 34.6903 100.341 32.649C101.225 30.6018 101.674 28.1357 101.674 25.3215C101.674 22.5074 101.196 20.0531 100.259 18.0236C99.3211 16 98.024 14.4248 96.4086 13.3451C94.7931 12.2655 92.9359 11.7168 90.8901 11.7168ZM90.8901 38.2242C89.8406 38.2242 88.9739 37.8466 88.3254 37.1092C87.6828 36.3776 87.217 35.0679 86.9399 33.2212C86.6628 31.3923 86.5213 28.7729 86.5213 25.4336C86.5213 22.0944 86.6628 19.4159 86.9399 17.587C87.217 15.7404 87.6887 14.4307 88.3254 13.6991C88.9739 12.9558 89.8347 12.5841 90.8901 12.5841C91.9454 12.5841 92.7944 12.9617 93.4312 13.6991C94.0561 14.4307 94.516 15.7404 94.7931 17.587C95.0702 19.4218 95.2117 22.059 95.2117 25.4336C95.2117 28.8083 95.0702 31.3923 94.7931 33.2212C94.5101 35.0679 94.0561 36.3776 93.4312 37.1092C92.7944 37.8525 91.9395 38.2242 90.8901 38.2242ZM90.8901 12.7965C89.8996 12.7965 89.0919 13.1446 88.4905 13.8407C87.8773 14.5428 87.4292 15.8112 87.1521 17.6165C86.875 19.4336 86.7335 22.0649 86.7335 25.4277C86.7335 28.7906 86.875 31.3687 87.1521 33.1859C87.4233 34.9912 87.8773 36.2655 88.4905 36.9617C89.0978 37.6519 89.9055 38.0059 90.8901 38.0059C91.8747 38.0059 92.6765 37.6578 93.2661 36.9617C93.8616 36.2596 94.3038 34.9912 94.5809 33.18C94.858 31.3569 94.9995 28.7493 94.9995 25.4218C94.9995 22.0944 94.858 19.4336 94.5809 17.6106C94.3038 15.8053 93.8616 14.531 93.2661 13.8289C92.6765 13.1387 91.8747 12.7847 90.8901 12.7847V12.7965Z" fill="white"></path><path d="M101.408 38.7905V37.8112L102.027 37.5929C103.053 37.2271 103.572 36.761 103.572 35.3333V18.1829C103.572 17.3805 103.466 16.7846 103.265 16.4011C103.059 16.0177 102.664 15.7522 102.074 15.6047L101.414 15.3864V14.8377L108.949 11.6578L109.391 12.2065L109.745 13.7168C110.617 13.0265 112.062 12.525 113.229 11.9469C114.562 11.2861 115.8 11.1563 117.062 11.1563C119.001 11.1563 120.935 12.0767 121.979 13.3923C123.022 14.7079 123.099 16.9026 123.099 19.6047V35.3864C123.099 36.8082 123.659 37.2802 124.773 37.6401L125.168 37.8053V38.7846H114.768V37.8053L115.34 37.587C116.366 37.1858 116.885 36.7197 116.885 35.3274V17.8466C116.885 15.5103 115.941 13.528 114.061 13.528C112.769 13.528 111.354 13.7817 109.827 15.3864V35.3805C109.827 36.8023 110.34 37.2743 111.372 37.6342L111.767 37.7994V38.7787H101.408V38.7905Z" fill="white"></path><path d="M125.275 38.8967H114.656V37.7404L115.299 37.4926C116.295 37.1032 116.773 36.6784 116.773 35.3333V17.8525C116.773 15.9115 116.059 13.6401 114.061 13.6401C112.811 13.6401 111.449 13.8584 109.934 15.4395V35.3923C109.934 36.7728 110.429 37.2035 111.408 37.5457L111.873 37.7404V38.8967H101.302V37.7404L101.992 37.4985C102.971 37.1504 103.466 36.7256 103.466 35.3392V18.1888C103.466 17.41 103.366 16.8259 103.171 16.4602C102.983 16.1062 102.605 15.8584 102.051 15.7168L101.308 15.469V14.7728L108.985 11.5339L109.497 12.1888L109.81 13.5398C110.411 13.0973 111.237 12.7374 112.039 12.3835C112.422 12.2124 112.817 12.0413 113.176 11.8584C114.603 11.1504 115.942 11.056 117.062 11.056C119.007 11.056 120.971 11.9469 122.067 13.3274C123.129 14.6608 123.211 16.8672 123.211 19.6047V35.3864C123.211 36.7669 123.748 37.1917 124.815 37.5398L125.286 37.7345V38.8908L125.275 38.8967ZM114.869 38.6843H125.057V37.8879L124.726 37.7522C123.6 37.3864 122.987 36.8967 122.987 35.3982V19.6165C122.987 16.9203 122.905 14.7551 121.89 13.469C120.853 12.1593 118.907 11.2743 117.056 11.2743C115.906 11.2743 114.65 11.3687 113.271 12.0531C112.905 12.236 112.51 12.4071 112.121 12.5782C111.272 12.9498 110.4 13.3392 109.804 13.8053L109.674 13.9115L109.291 12.2596L108.914 11.7935L101.514 14.9144V15.3156L102.104 15.5103C102.711 15.6637 103.136 15.9469 103.354 16.354C103.566 16.7551 103.672 17.3687 103.672 18.1829V35.3333C103.672 36.8318 103.106 37.3215 102.057 37.6932L101.509 37.8879V38.6784H111.655V37.882L111.325 37.7463C110.282 37.3746 109.716 36.8908 109.716 35.3923V15.3569L109.745 15.3274C111.331 13.6578 112.811 13.4336 114.055 13.4336C115.835 13.4336 116.985 15.1681 116.985 17.8584V35.3392C116.985 36.7905 116.419 37.2861 115.376 37.6991L114.869 37.8938V38.6902V38.6843Z" fill="white"></path><path d="M139.878 40.7611C138.281 40.7611 136.659 40.5192 135.008 40.0295C133.358 39.5399 131.978 38.8968 130.875 38.1003L131.094 30.708H131.53L132.88 34.2419C133.287 35.2567 133.723 36.1534 134.183 36.9322C134.649 37.711 135.286 38.3186 136.099 38.7552C136.677 39.1151 137.237 39.3629 137.774 39.4868C138.31 39.6107 138.912 39.6756 139.578 39.6756C141.346 39.6756 142.744 39.0797 143.776 37.882C144.807 36.6844 145.32 35.1446 145.32 33.2626C145.32 31.4868 144.972 30.1003 144.277 29.1033C143.581 28.1062 142.467 27.1387 140.928 26.1947L139.141 25.2154C136.648 23.8407 134.696 22.2537 133.293 20.4602C131.884 18.6667 131.182 16.2832 131.182 13.3157C131.182 11.18 131.624 9.32747 132.509 7.76995C133.393 6.21243 134.625 5.01479 136.205 4.18293C137.785 3.35107 139.637 2.93219 141.753 2.93219C143.292 2.93219 144.748 3.18588 146.128 3.69325C147.508 4.20063 148.699 4.89089 149.719 5.75815L149.459 12.2832H149.023L147.236 8.20653C146.741 6.93809 146.252 6.04133 145.757 5.51626C145.261 4.99119 144.695 4.61951 144.059 4.40122C143.681 4.25962 143.333 4.15933 143.015 4.10033C142.697 4.04723 142.29 4.01774 141.795 4.01774C140.315 4.01774 139.071 4.55461 138.051 5.62246C137.037 6.6903 136.53 8.13573 136.53 9.94104C136.53 11.7464 136.919 13.2685 137.703 14.3717C138.487 15.475 139.631 16.4661 141.14 17.3334L143.139 18.4189C145.922 19.941 147.926 21.5635 149.141 23.2862C150.361 25.0089 150.968 27.2272 150.968 29.9469C150.968 33.1387 150.002 35.7346 148.074 37.7463C146.146 39.7581 143.41 40.7611 139.873 40.7611H139.878Z" fill="#C73834"></path><path d="M139.879 40.8673C138.281 40.8673 136.63 40.6195 134.973 40.1298C133.317 39.6401 131.913 38.9853 130.811 38.1829L130.764 38.1475L130.988 30.5959H131.601L132.975 34.1947C133.376 35.1976 133.812 36.1003 134.272 36.8673C134.72 37.6283 135.351 38.2242 136.147 38.649C136.718 39.0089 137.273 39.2507 137.797 39.3746C138.322 39.4985 138.924 39.5634 139.578 39.5634C141.305 39.5634 142.691 38.9735 143.693 37.8053C144.701 36.6313 145.214 35.1033 145.214 33.2566C145.214 31.5103 144.872 30.1357 144.188 29.1623C143.505 28.1829 142.39 27.2153 140.869 26.2832L139.089 25.3097C136.595 23.9351 134.614 22.3245 133.205 20.5251C131.79 18.7198 131.07 16.295 131.07 13.3097C131.07 11.1623 131.524 9.28024 132.409 7.71092C133.299 6.1416 134.555 4.92036 136.147 4.08261C137.738 3.24485 139.619 2.82007 141.742 2.82007C143.281 2.82007 144.766 3.07966 146.152 3.58703C147.537 4.1003 148.752 4.80237 149.772 5.67553L149.813 5.71092L149.548 12.3894H148.94L147.13 8.2478C146.641 6.99706 146.152 6.1003 145.674 5.58703C145.197 5.07376 144.637 4.70797 144.023 4.50148C143.646 4.35989 143.304 4.2596 142.998 4.2065C142.685 4.1534 142.278 4.1239 141.795 4.1239C140.356 4.1239 139.124 4.65488 138.133 5.69322C137.143 6.73747 136.642 8.1652 136.642 9.94101C136.642 11.7168 137.031 13.2271 137.797 14.3068C138.564 15.3923 139.714 16.3776 141.199 17.2389L143.198 18.3245C145.981 19.8466 148.015 21.4926 149.235 23.2212C150.462 24.9499 151.081 27.2153 151.081 29.941C151.081 33.1446 150.096 35.7935 148.156 37.8171C146.217 39.8407 143.428 40.8673 139.879 40.8673ZM130.982 38.0472C132.061 38.8201 133.423 39.4513 135.038 39.9292C136.677 40.413 138.304 40.6608 139.879 40.6608C143.369 40.6608 146.105 39.6578 148.003 37.6755C149.902 35.6932 150.868 33.0974 150.868 29.9469C150.868 27.2625 150.261 25.0443 149.058 23.351C147.856 21.6519 145.845 20.0236 143.092 18.5192L141.093 17.4336C139.578 16.5605 138.405 15.5516 137.621 14.4366C136.83 13.3215 136.424 11.8053 136.424 9.94691C136.424 8.0885 136.948 6.63718 137.974 5.55163C139.006 4.46609 140.291 3.91741 141.795 3.91741C142.29 3.91741 142.703 3.94691 143.033 4.00001C143.357 4.05311 143.711 4.1593 144.1 4.30679C144.749 4.52508 145.332 4.90856 145.833 5.44544C146.335 5.97641 146.836 6.89676 147.337 8.1711L149.094 12.177H149.353L149.607 5.81122C148.616 4.96756 147.431 4.29499 146.087 3.79942C144.725 3.29794 143.269 3.04426 141.753 3.04426C139.666 3.04426 137.815 3.46314 136.259 4.2832C134.702 5.10325 133.476 6.29499 132.603 7.82892C131.731 9.36284 131.288 11.2094 131.288 13.3215C131.288 16.2537 131.99 18.6372 133.376 20.4012C134.767 22.177 136.724 23.764 139.195 25.1328L140.981 26.1121C142.526 27.062 143.664 28.0472 144.365 29.0502C145.073 30.059 145.427 31.4808 145.427 33.2684C145.427 35.1681 144.896 36.7493 143.858 37.9587C142.815 39.174 141.37 39.7876 139.578 39.7876C138.906 39.7876 138.287 39.7227 137.75 39.5929C137.202 39.4631 136.63 39.2153 136.04 38.8437C135.221 38.4071 134.561 37.7817 134.089 36.9853C133.623 36.2065 133.181 35.2979 132.774 34.2773L131.453 30.8142H131.194L130.982 38.0472Z" fill="#C73834"></path><path d="M150.373 49.8938V49.3511L150.886 49.1328C151.947 48.7729 152.478 47.9056 152.478 46.5428V19.8113C152.478 19.0207 152.372 18.4248 152.154 18.0295C151.941 17.6343 151.546 17.3629 150.969 17.2213L150.367 17.062V16.5192L157.678 13.3865L158.108 13.9292L158.498 15.6048C159.441 14.885 160.496 14.3304 161.658 13.9292C162.819 13.534 164.016 13.3334 165.248 13.3334C167.713 13.3334 169.67 14.5133 171.115 16.8673C172.559 19.2272 173.284 22.6018 173.284 26.9912C173.284 31.3806 172.488 34.708 170.896 37.1918C169.305 39.6756 167.064 40.9145 164.169 40.9145C161.905 40.9145 160.001 40.5015 158.45 39.6756V46.3776C158.45 47.8172 158.963 48.7139 159.995 49.0797L160.815 49.3511V49.8938H150.367H150.373ZM162.112 39.3629C163.544 39.3629 164.682 38.4248 165.531 36.5546C166.374 34.6844 166.799 31.5694 166.799 27.2154C166.799 22.8614 166.398 19.8113 165.596 18.0649C164.794 16.3186 163.633 15.4455 162.112 15.4455C161.05 15.4455 159.877 15.8761 158.586 16.7434V38.5015C159.677 39.0797 160.85 39.3629 162.112 39.3629Z" fill="#C73834"></path><path d="M160.933 50H150.273V49.2802L150.857 49.0384C151.883 48.6903 152.384 47.8761 152.384 46.5487V19.8171C152.384 19.0502 152.278 18.4661 152.071 18.0885C151.871 17.7227 151.499 17.469 150.957 17.3333L150.273 17.1505V16.4602L157.719 13.2685L158.221 13.9174L158.568 15.4336C159.482 14.7611 160.514 14.2242 161.628 13.8407C162.796 13.4454 164.016 13.239 165.254 13.239C167.748 13.239 169.753 14.4484 171.215 16.826C172.665 19.1918 173.402 22.6136 173.402 27.003C173.402 31.3923 172.595 34.7729 170.997 37.2626C169.393 39.764 167.1 41.0384 164.175 41.0384C161.982 41.0384 160.095 40.6431 158.562 39.8643V46.3894C158.562 47.7935 159.046 48.6431 160.036 48.9853L160.927 49.2802V50.0059L160.933 50ZM150.485 49.7876H160.72V49.4336L159.977 49.1859C158.899 48.8083 158.356 47.8702 158.356 46.3835V39.5044L158.515 39.587C160.042 40.4012 161.947 40.8142 164.181 40.8142C167.023 40.8142 169.258 39.5752 170.82 37.1387C172.394 34.6844 173.19 31.2684 173.19 26.9912C173.19 22.7139 172.465 19.2567 171.032 16.9263C169.611 14.6136 167.666 13.4395 165.254 13.4395C164.04 13.4395 162.843 13.6401 161.699 14.0295C160.555 14.4189 159.5 14.9794 158.568 15.6873L158.439 15.7876L158.02 13.9764L157.655 13.5221L150.485 16.5959V16.9853L151.01 17.1269C151.611 17.2803 152.03 17.5693 152.26 17.9882C152.484 18.4012 152.596 19.0148 152.596 19.823V46.5546C152.596 47.9646 152.036 48.8732 150.933 49.2448L150.491 49.4277V49.7876H150.485ZM162.112 39.469C160.838 39.469 159.636 39.1741 158.539 38.59L158.48 38.5605V16.6844L158.527 16.6549C159.83 15.7817 161.033 15.3392 162.112 15.3392C163.668 15.3392 164.871 16.2419 165.691 18.0177C166.498 19.7699 166.905 22.8614 166.905 27.2095C166.905 31.5575 166.475 34.7139 165.626 36.59C164.765 38.4956 163.58 39.4631 162.112 39.4631V39.469ZM158.692 38.4307C159.748 38.9735 160.897 39.2507 162.112 39.2507C163.491 39.2507 164.612 38.3245 165.431 36.5074C166.268 34.6608 166.687 31.528 166.687 27.2095C166.687 22.8909 166.286 19.8289 165.49 18.1062C164.712 16.413 163.568 15.5516 162.106 15.5516C161.086 15.5516 159.936 15.9705 158.686 16.7965V38.4307H158.692Z" fill="#C73834"></path><path d="M185.577 40.8732C183.384 40.8732 181.479 40.3068 179.864 39.174C178.248 38.0413 176.998 36.4307 176.12 34.3422C175.241 32.2537 174.799 29.8053 174.799 26.997C174.799 24.1888 175.271 21.764 176.208 19.7109C177.146 17.6578 178.431 16.0767 180.058 14.9616C181.686 13.8466 183.525 13.2861 185.577 13.2861C187.629 13.2861 189.456 13.8348 191.072 14.9321C192.687 16.0295 193.961 17.6047 194.904 19.6578C195.841 21.7109 196.313 24.1593 196.313 26.997C196.313 29.8348 195.871 32.295 194.993 34.3658C194.114 36.4366 192.87 38.0354 191.272 39.174C189.674 40.3068 187.776 40.8732 185.583 40.8732H185.577ZM185.577 39.7935C186.585 39.7935 187.393 39.4336 188 38.7139C188.607 37.9941 189.044 36.7139 189.321 34.8791C189.592 33.0442 189.733 30.4543 189.733 27.1032C189.733 23.7522 189.598 21.1091 189.321 19.2743C189.044 17.4395 188.607 16.1593 188 15.4395C187.393 14.7198 186.585 14.3599 185.577 14.3599C184.569 14.3599 183.749 14.7198 183.13 15.4395C182.511 16.1593 182.063 17.4395 181.792 19.2743C181.515 21.1091 181.379 23.7168 181.379 27.1032C181.379 30.4897 181.515 33.0442 181.792 34.8791C182.063 36.7139 182.511 37.9941 183.13 38.7139C183.749 39.4336 184.563 39.7935 185.577 39.7935Z" fill="#C73834"></path><path d="M185.577 40.9793C183.372 40.9793 181.432 40.4011 179.805 39.2625C178.178 38.1239 176.91 36.4778 176.026 34.3834C175.147 32.295 174.699 29.8112 174.699 26.997C174.699 24.1829 175.177 21.7227 176.114 19.6637C177.058 17.6047 178.361 15.9941 180 14.8672C181.639 13.7463 183.519 13.174 185.577 13.174C187.635 13.174 189.504 13.7345 191.131 14.8377C192.758 15.941 194.055 17.5457 194.999 19.6047C195.936 21.6637 196.414 24.1475 196.414 26.9911C196.414 29.8348 195.965 32.3304 195.087 34.4012C194.203 36.4778 192.941 38.1121 191.331 39.2507C189.722 40.3893 187.782 40.9675 185.577 40.9675V40.9793ZM185.577 13.3923C183.561 13.3923 181.727 13.9469 180.117 15.0442C178.508 16.1416 177.229 17.7286 176.303 19.7522C175.377 21.7817 174.906 24.2183 174.906 26.997C174.906 29.7758 175.348 32.236 176.214 34.3009C177.081 36.3598 178.331 37.9705 179.923 39.0855C181.515 40.2006 183.413 40.7669 185.571 40.7669C187.729 40.7669 189.627 40.2006 191.202 39.0855C192.782 37.9646 194.02 36.3657 194.887 34.3245C195.759 32.2773 196.195 29.8112 196.195 26.997C196.195 24.1829 195.724 21.7286 194.798 19.6991C193.872 17.6755 192.599 16.1003 191.007 15.0206C189.415 13.941 187.587 13.3923 185.571 13.3923H185.577ZM185.577 39.8997C184.539 39.8997 183.69 39.5221 183.054 38.7846C182.423 38.0531 181.963 36.7433 181.686 34.8967C181.415 33.0678 181.273 30.4483 181.273 27.1091C181.273 23.7699 181.415 21.0914 181.686 19.2625C181.963 17.4159 182.423 16.1062 183.054 15.3746C183.69 14.6312 184.545 14.2596 185.577 14.2596C186.609 14.2596 187.458 14.6371 188.083 15.3746C188.696 16.1062 189.15 17.4159 189.427 19.2625C189.698 21.0973 189.84 23.7345 189.84 27.1091C189.84 30.4837 189.698 33.0678 189.427 34.8967C189.15 36.7433 188.696 38.0531 188.083 38.7846C187.458 39.528 186.615 39.8997 185.577 39.8997ZM185.577 14.4719C184.604 14.4719 183.808 14.82 183.213 15.5162C182.611 16.2183 182.163 17.4867 181.898 19.2979C181.627 21.115 181.485 23.7463 181.485 27.1091C181.485 30.4719 181.621 33.0501 181.898 34.8672C182.169 36.6725 182.611 37.9469 183.213 38.6489C183.808 39.3392 184.604 39.6932 185.577 39.6932C186.55 39.6932 187.334 39.3451 187.918 38.6489C188.507 37.9469 188.944 36.6784 189.215 34.8672C189.486 33.0442 189.622 30.4365 189.622 27.1091C189.622 23.7817 189.486 21.1209 189.215 19.2979C188.944 17.4926 188.507 16.2183 187.918 15.5162C187.334 14.8259 186.55 14.4719 185.577 14.4719Z" fill="#C73834"></path><path d="M196.089 40.466V39.9233L196.72 39.705C197.28 39.4867 197.663 39.1622 197.875 38.7315C198.088 38.3008 198.188 37.7404 198.188 37.056V20.1592C198.188 19.3687 198.082 18.7846 197.875 18.407C197.669 18.0295 197.28 17.7699 196.72 17.6224L196.089 17.4041V16.8613L203.323 13.7286L203.742 14.2713L204.119 18.9144V19.3451C204.514 18.3362 205.021 17.0088 205.652 16.1592C206.283 15.3156 206.984 14.6194 207.757 14.0826C208.529 13.5398 209.29 13.2743 210.05 13.2743C211.117 13.2743 211.931 13.6519 212.491 14.407C213.051 15.1622 213.334 16.1179 213.334 17.2684C213.334 18.4955 213.063 19.4395 212.515 20.1003C211.966 20.7669 211.318 21.0973 210.557 21.0973C209.378 21.0973 208.246 20.6843 207.344 19.174L207.09 18.8495C206.79 18.5958 206.743 18.4542 206.418 18.3598C206.065 18.2536 205.864 18.2477 205.387 18.5604C205.027 18.7905 204.874 19.6755 204.691 20.1238C204.508 20.5722 204.331 21.0855 204.166 21.6637V36.7256C204.166 38.1651 204.656 39.0619 205.64 39.4218L206.984 39.9056V40.4483H196.089V40.466Z" fill="#C73834"></path><path d="M207.091 40.5722H195.983V39.8466L196.685 39.6047C197.215 39.4041 197.581 39.0914 197.781 38.6902C197.982 38.2773 198.088 37.7286 198.088 37.0619V20.1652C198.088 19.3982 197.987 18.82 197.787 18.4601C197.592 18.1121 197.227 17.8643 196.696 17.7286L195.983 17.4867V16.8023L203.359 13.6106L203.848 14.2419V14.2714L204.219 18.8082C204.585 17.8761 205.033 16.8259 205.57 16.1062C206.206 15.2566 206.92 14.5486 207.698 14.0059C208.482 13.4572 209.278 13.174 210.05 13.174C211.147 13.174 211.996 13.5693 212.574 14.3481C213.146 15.1209 213.435 16.1062 213.435 17.2743C213.435 18.5191 213.152 19.4926 212.591 20.177C212.025 20.8672 211.342 21.2153 210.551 21.2153C209.095 21.2153 208.046 20.5899 207.25 19.2389L207.008 18.9321C206.92 18.8554 206.855 18.7964 206.796 18.7374C206.66 18.6017 206.584 18.5309 206.377 18.4719C206.059 18.3776 205.882 18.3658 205.434 18.6548C205.21 18.8023 205.057 19.2979 204.939 19.6932C204.886 19.8702 204.833 20.0354 204.779 20.1711C204.603 20.6076 204.426 21.115 204.261 21.6873V36.7374C204.261 38.1416 204.721 38.9911 205.664 39.3333L207.079 39.8466V40.5663L207.091 40.5722ZM196.201 40.3599H206.878V40L205.605 39.5398C204.579 39.1622 204.06 38.2242 204.06 36.7433V21.6519C204.237 21.0737 204.414 20.5486 204.591 20.1003C204.644 19.9764 204.691 19.8171 204.744 19.646C204.88 19.1917 205.039 18.6784 205.328 18.4896C205.817 18.1711 206.047 18.1593 206.448 18.2773C206.702 18.354 206.808 18.4542 206.955 18.5958C207.014 18.6489 207.079 18.7138 207.161 18.7846L207.179 18.8023L207.433 19.1268C208.199 20.4129 209.19 21.0088 210.557 21.0088C211.277 21.0088 211.908 20.6843 212.432 20.0472C212.963 19.4041 213.228 18.4719 213.228 17.2802C213.228 16.1593 212.951 15.2153 212.409 14.4837C211.872 13.7581 211.082 13.3923 210.056 13.3923C209.325 13.3923 208.576 13.6578 207.828 14.1829C207.073 14.7138 206.371 15.4041 205.746 16.236C205.139 17.0501 204.65 18.3127 204.255 19.3215L204.019 19.9233V18.9203L203.642 14.3186L203.294 13.8702L196.201 16.9439V17.3392L196.761 17.528C197.339 17.6755 197.752 17.9587 197.976 18.3599C198.2 18.7551 198.306 19.351 198.306 20.1652V37.0619C198.306 37.7581 198.194 38.3363 197.982 38.7846C197.758 39.2389 197.351 39.587 196.767 39.8112L196.207 40.0059V40.3599H196.201Z" fill="#C73834"></path><path d="M220.404 40.8791C218.611 40.8791 217.214 40.3009 216.218 39.1504C215.221 38 214.726 36.1652 214.726 33.646V16.1416L214.49 15.1032L213.954 14.1062L213.883 13.6165C214.708 13.0147 214.95 12.8555 215.581 12.3363C216.212 11.8171 216.636 11.3923 217.184 10.8024L220.404 6.33038H220.822L220.698 13.8879H225.621V14.9676H220.657V34.6136C220.657 35.8761 220.875 36.826 221.312 37.4749C221.748 38.1239 222.302 38.4484 222.974 38.4484C223.564 38.4484 224.083 38.2596 224.531 37.882C224.979 37.5044 225.427 36.9911 225.875 36.3422L226.294 36.885C225.733 38.1062 224.961 39.0796 223.982 39.7994C222.998 40.5192 221.807 40.8791 220.409 40.8791H220.404Z" fill="#C73834"></path><path d="M220.404 40.9852C218.588 40.9852 217.149 40.3894 216.141 39.2212C215.133 38.0531 214.62 36.177 214.62 33.646V16.1534L214.39 15.1386L213.848 14.1239L213.771 13.5693L214.172 13.2802C214.732 12.8731 214.986 12.6903 215.516 12.2596C216.123 11.764 216.577 11.3097 217.108 10.7316L220.351 6.22418H220.934L220.811 13.7817H225.734V15.0737H220.769V34.6136C220.769 35.8466 220.982 36.7906 221.4 37.4159C221.819 38.0354 222.332 38.3422 222.974 38.3422C223.534 38.3422 224.036 38.1593 224.46 37.7994C224.902 37.4277 225.345 36.9144 225.787 36.2832L225.869 36.1652L226.418 36.8731L226.388 36.9321C225.822 38.1652 225.032 39.1622 224.042 39.8879C223.045 40.6195 221.819 40.9852 220.404 40.9852ZM214.054 14.0767L214.591 15.0796L214.832 16.1475V33.6519C214.832 36.1357 215.327 37.9646 216.3 39.0855C217.267 40.2065 218.653 40.7729 220.404 40.7729C221.778 40.7729 222.957 40.4189 223.918 39.7168C224.861 39.0265 225.622 38.0767 226.17 36.9026L225.881 36.531C225.457 37.1268 225.026 37.6106 224.602 37.9705C224.136 38.3658 223.588 38.5605 222.974 38.5605C222.267 38.5605 221.677 38.2183 221.223 37.5398C220.781 36.879 220.551 35.8938 220.551 34.6195V14.8614H225.515V13.9941H220.587L220.71 6.43657H220.451L217.267 10.8672C216.719 11.4572 216.259 11.9233 215.646 12.4248C215.109 12.8613 214.856 13.0501 214.29 13.4572L213.995 13.6696L214.054 14.0767Z" fill="#C73834"></path><path d="M232.39 40.3894C230.975 40.3894 229.701 40.1829 228.569 39.7699C227.443 39.3569 226.4 38.8437 225.444 38.2301L225.486 31.8053H225.922L227.396 35.0443C228.033 36.4838 228.734 37.5516 229.501 38.2537C230.267 38.9558 231.246 39.3097 232.431 39.3097C233.822 39.3097 234.943 38.9204 235.792 38.1475C236.647 37.3746 237.071 36.3363 237.071 35.0443C237.071 33.8584 236.764 32.885 236.157 32.1298C235.55 31.3746 234.424 30.6903 232.773 30.0767L230.951 29.3746C229.188 28.7257 227.797 27.7227 226.783 26.354C225.769 24.9853 225.262 23.3156 225.262 21.3333C225.262 18.9558 226.016 16.944 227.52 15.2861C229.023 13.6342 231.181 12.8024 233.988 12.8024C235.114 12.8024 236.181 12.9558 237.177 13.2625C238.174 13.5693 239.135 14.0295 240.06 14.6372L239.801 20.4661H239.365L237.843 17.121C237.295 15.9351 236.753 15.0974 236.216 14.6136C235.68 14.1298 234.878 13.882 233.805 13.882C232.82 13.882 231.895 14.2242 231.028 14.9086C230.161 15.5929 229.725 16.5664 229.725 17.823C229.725 19.0797 230.096 20.0177 230.833 20.7375C231.57 21.4572 232.661 22.1239 234.111 22.7375L236.063 23.4395C238.144 24.2301 239.636 25.3215 240.532 26.708C241.428 28.0944 241.876 29.7581 241.876 31.6991C241.876 34.3245 241.045 36.4307 239.382 38.0177C237.72 39.5988 235.379 40.3953 232.372 40.3953L232.39 40.3894Z" fill="#C73834"></path><path d="M232.39 40.4956C230.969 40.4956 229.672 40.2832 228.534 39.8702C227.402 39.4572 226.347 38.9322 225.392 38.3186L225.344 38.2891L225.386 31.6991H225.993L227.496 35.003C228.121 36.4248 228.823 37.4926 229.578 38.1829C230.32 38.8614 231.281 39.2094 232.437 39.2094C233.793 39.2094 234.901 38.826 235.727 38.0767C236.552 37.3274 236.971 36.3068 236.971 35.0501C236.971 33.8938 236.67 32.9322 236.081 32.2006C235.491 31.4631 234.365 30.7847 232.744 30.1829L230.922 29.4808C229.147 28.8319 227.726 27.7994 226.706 26.4189C225.686 25.0383 225.167 23.3274 225.167 21.3333C225.167 18.944 225.934 16.885 227.455 15.2153C228.976 13.5457 231.175 12.6962 233.999 12.6962C235.131 12.6962 236.216 12.8496 237.219 13.1622C238.221 13.469 239.2 13.941 240.131 14.5546L240.184 14.59L239.919 20.5841H239.312L237.767 17.174C237.224 16.0059 236.688 15.174 236.163 14.6962C235.65 14.2301 234.866 13.9941 233.828 13.9941C232.873 13.9941 231.965 14.3304 231.116 14.9971C230.279 15.6578 229.855 16.6077 229.855 17.8289C229.855 19.0501 230.214 19.9705 230.928 20.6667C231.653 21.3746 232.744 22.0354 234.17 22.6431L236.116 23.3392C238.215 24.1357 239.736 25.2507 240.638 26.649C241.54 28.0472 242 29.7463 242 31.6991C242 34.3422 241.151 36.4956 239.471 38.0944C237.796 39.6873 235.409 40.5015 232.39 40.5015V40.4956ZM225.557 38.1711C226.488 38.7611 227.514 39.2625 228.611 39.6696C229.725 40.0767 230.998 40.2832 232.396 40.2832C235.361 40.2832 237.696 39.4926 239.329 37.9351C240.962 36.3835 241.794 34.2832 241.794 31.6991C241.794 29.7876 241.346 28.1239 240.467 26.7611C239.589 25.4041 238.103 24.3186 236.051 23.5339L234.1 22.8319C232.643 22.2124 231.529 21.5339 230.786 20.8083C230.032 20.0708 229.648 19.0619 229.648 17.8171C229.648 16.5723 230.102 15.5162 230.993 14.8201C231.877 14.1239 232.832 13.7699 233.834 13.7699C234.925 13.7699 235.762 14.0236 236.316 14.5251C236.859 15.0148 237.413 15.8702 237.967 17.0678L239.459 20.354H239.718L239.972 14.6844C239.076 14.1003 238.132 13.6519 237.165 13.351C236.181 13.0501 235.12 12.8968 234.005 12.8968C231.246 12.8968 229.094 13.7227 227.62 15.3451C226.14 16.9735 225.392 18.9853 225.392 21.3215C225.392 23.2684 225.893 24.9381 226.889 26.2773C227.885 27.6224 229.271 28.6254 231.004 29.2625L232.826 29.9646C234.483 30.5782 235.638 31.2802 236.258 32.0472C236.877 32.8201 237.195 33.823 237.195 35.0325C237.195 36.354 236.753 37.4218 235.88 38.2183C235.008 39.0089 233.852 39.4041 232.443 39.4041C231.234 39.4041 230.226 39.0384 229.442 38.3245C228.67 37.6165 227.95 36.5192 227.314 35.0796L225.869 31.9056H225.61L225.568 38.1652L225.557 38.1711Z" fill="#C73834"></path></g><defs><clipPath id="clip0_3410_93238"><rect width="242" height="50" fill="white"></rect></clipPath></defs></svg> 