<?xml version="1.0" encoding="utf-8"?>
<!-- Generator: Adobe Illustrator 19.2.1, SVG Export Plug-In . SVG Version: 6.00 Build 0)  -->
<svg version="1.1" id="layer" xmlns="http://www.w3.org/2000/svg" xmlns:xlink="http://www.w3.org/1999/xlink" x="0px" y="0px"
	 viewBox="0 0 652 652" style="enable-background:new 0 0 652 652;" xml:space="preserve">
<style type="text/css">
	.st0{fill:#C6A348;}
</style>
<path class="st0" d="M519.4,342.3l-8.3-11.2h-98.9l40.2,58.1c-41.8,8.2-81.3-26.8-80.8-67.5c0.6-41.6,34.1-72.7,74.3-72.4
	C490,249.5,533.9,297,519.4,342.3 M578.7,413.7c0,0,29.3-38.3,29.5-88.1c0.2-97.9-68.3-161.5-164.1-161.7
	c-55.4-0.1-102.5,27-131,66.5c11.8,16.8,18.8,33.1,21.6,43.8h-43.8c-2.2,6.9-4,14-5.2,21.3h54.1c1.3,8,1.9,16.2,1.9,24.5
	c0,33.5-10.5,64.6-28.4,90.2c27.9,40.1,74.1,69.2,131.5,69.2c38.1,0,64.9-16.2,69.8-18.8l10.1,13.3H622L578.7,413.7L578.7,413.7z"/>
<path d="M193.6,369.8h40.3c0,1.8-20.6,21.9-51.6,21.9c-34.1,0-72.7-26.9-73.5-70c-0.8-44.7,37.8-73.9,73.5-72.7
	c28.9,1,39.9,9.3,56.1,25.2c0,0,23.3,0,47,0.1h49.2c-2.8-10.8-9.7-27-21.6-43.8c-1-1.4-2-2.8-3.1-4.2
	c-23.7-31.6-64.9-63.5-128.9-63.7c-75.2-0.1-133.2,50.2-152.3,111.7c-0.2,0.7-0.5,1.5-0.7,2.2c0,0.1,0,0.1-0.1,0.1
	c-3.9,13.8-6.1,28.3-6.1,43.3c0.1,14.4,2,28.1,5.4,41.1c12.1,44.9,43.5,81.9,84.9,101.8c0.4,0.2,0.7,0.3,1,0.5
	c0.2,0.1,0.4,0.2,0.7,0.3c20.9,9.5,44.3,14.8,69.3,15c52.8-0.4,99.5-26.3,128.3-65.8c0.6-0.8,1.1-1.7,1.7-2.5
	c17.9-25.6,28.4-56.7,28.4-90.2c0-8.4-0.7-16.5-1.9-24.5H193.6V369.8L193.6,369.8z"/>
</svg>
