<?xml version="1.0" encoding="UTF-8" standalone="no"?>
<!-- Created with Inkscape (http://www.inkscape.org/) -->

<svg
   xmlns:dc="http://purl.org/dc/elements/1.1/"
   xmlns:cc="http://creativecommons.org/ns#"
   xmlns:rdf="http://www.w3.org/1999/02/22-rdf-syntax-ns#"
   xmlns:svg="http://www.w3.org/2000/svg"
   xmlns="http://www.w3.org/2000/svg"
   xmlns:sodipodi="http://sodipodi.sourceforge.net/DTD/sodipodi-0.dtd"
   xmlns:inkscape="http://www.inkscape.org/namespaces/inkscape"
   width="158.74998mm"
   height="28.173109mm"
   viewBox="0 0 158.74998 28.173109"
   version="1.1"
   id="svg77804"
   inkscape:version="0.92.1 r15371"
   sodipodi:docname="Khaleej_Times_(2019-07-28).svg">
  <defs
     id="defs77798" />
  <sodipodi:namedview
     id="base"
     pagecolor="#ffffff"
     bordercolor="#666666"
     borderopacity="1.0"
     inkscape:pageopacity="0.0"
     inkscape:pageshadow="2"
     inkscape:zoom="0.35"
     inkscape:cx="845.22256"
     inkscape:cy="149.99999"
     inkscape:document-units="mm"
     inkscape:current-layer="svg77804"
     showgrid="false"
     fit-margin-top="0"
     fit-margin-left="0"
     fit-margin-right="0"
     fit-margin-bottom="0"
     inkscape:window-width="1920"
     inkscape:window-height="1001"
     inkscape:window-x="-9"
     inkscape:window-y="-9"
     inkscape:window-maximized="1" />
  <metadata
     id="metadata77801">
    <rdf:RDF>
      <cc:Work
         rdf:about="">
        <dc:format>image/svg+xml</dc:format>
        <dc:type
           rdf:resource="http://purl.org/dc/dcmitype/StillImage" />
        <dc:title></dc:title>
      </cc:Work>
    </rdf:RDF>
  </metadata>
  <path
     inkscape:connector-curvature="0"
     style="fill:#211e1e;fill-opacity:1;fill-rule:nonzero;stroke:none;stroke-width:0.30256778"
     d="m 112.47838,6.16721 c -0.80606,-0.84152 -1.65939,-1.68422 -2.51272,-2.48082 0.85333,-0.77297 1.70666,-1.59202 2.51272,-2.41227 0.87697,0.72924 1.75395,1.5483 2.58365,2.41227 -0.8297,0.91007 -1.70668,1.75277 -2.58365,2.48082 M 59.3801,10.76364 65.52009,6.82672 c 1.51639,1.68421 2.82003,3.41333 4.02912,5.23465 l -6.49457,4.46052 v 1.61566 c 1.16063,0.6595 2.79639,1.31901 4.12485,1.70667 l 1.89578,-1.54712 0.11819,0.27184 -4.19577,3.50554 c -2.18061,-0.47867 -3.9582,-1.20673 -5.61759,-2.1168 z m 3.67454,5.39303 3.27151,-2.27517 c -0.9727,-1.47973 -2.03997,-2.98076 -3.27151,-4.20994 z m 6.99334,-5.39303 6.13881,-3.93692 c 1.51639,1.68421 2.82121,3.41333 4.0303,5.23465 l -6.49575,4.46052 v 1.61566 c 1.16181,0.6595 2.79757,1.31901 4.12485,1.70667 l 1.89577,-1.54712 0.11938,0.27184 -4.19577,3.50554 c -2.18061,-0.47867 -3.95938,-1.20673 -5.61759,-2.1168 z m 3.67336,5.39303 3.27151,-2.27517 C 76.02133,12.40177 74.95406,10.90074 73.72134,9.67156 Z m 38.70976,-9.2614 c 0.87698,0.81906 1.68304,1.70666 2.29881,2.77629 v 9.17041 c 0.61696,0.41012 1.28,0.72923 2.15816,1.00225 l -2.48909,2.23026 c -1.01999,-0.43258 -2.84484,-1.43366 -3.38971,-2.07188 V 10.67263 C 110.72443,10.14906 110.06138,9.603 109.37352,8.89741 Z m 24.6061,3.86837 6.13881,-3.93692 c 1.51756,1.68421 2.82121,3.41333 4.0303,5.23465 l -6.49575,4.46052 v 1.61566 c 1.16181,0.6595 2.79757,1.31901 4.12485,1.70667 l 1.89696,-1.54712 0.11819,0.27184 -4.19577,3.50554 c -2.18061,-0.47867 -3.95819,-1.20673 -5.61759,-2.1168 z m 3.67336,5.39303 3.27151,-2.25271 c -0.97152,-1.47855 -2.03878,-3.00322 -3.27151,-4.2324 z m -38.56676,2.82239 c 1.06608,0 1.82486,-0.20446 2.13334,-0.27301 V 4.73357 c -0.52122,0 -1.20909,-0.13711 -1.51757,-0.13711 v 7.62447 c 0,3.64027 -3.9582,4.86945 -5.00182,5.46159 1.20908,0.72805 2.72547,1.29654 4.38605,1.29654 m -4.55152,-1.4561 c 0.68669,-0.63706 1.37455,-1.82132 1.37455,-3.64146 V 3.7774 C 98.72928,3.71 98.27897,3.64148 98.13714,3.57293 V 13.8815 c 0,2.04825 -0.68669,2.84486 -1.06608,3.27743 0.14183,0.091 0.37939,0.29548 0.52122,0.36403 M 110.65352,0.4326 c -0.0709,0.50113 -0.68786,4.30097 -5.23939,4.30097 h -0.82969 v 13.88147 c 2.34726,-0.72806 4.31513,-2.61674 5.16846,-5.23348 h 0.14184 c -0.3794,4.86945 -4.40851,8.67046 -9.33943,8.67046 -5.3103,0 -9.26849,-3.93811 -9.26849,-9.33114 0,-3.5729 1.89577,-6.82669 4.7879,-8.35135 l 0.0709,0.0674 c -1.35092,1.52583 -2.1097,3.48308 -2.1097,5.80315 0,2.9134 1.13817,5.25712 2.86848,6.78177 0.37939,-0.49994 0.92425,-1.38755 0.92425,-3.20887 V 3.50441 c -0.16546,0 -0.7576,-0.15838 -1.44547,-0.15838 -1.89578,0 -3.48425,0.52239 -4.93091,2.04705 L 91.33408,5.37058 C 91.78439,2.23026 94.10802,0 98.27896,0 c 3.79273,0 5.76061,1.38875 8.72364,1.38875 1.99151,0 3.12969,-0.72925 3.50908,-1.02471 z m 48.09646,7.69185 -4.10002,4.73234 c 0.73396,0.29666 2.25152,1.09327 3.05758,1.68423 v 5.3032 l -4.38604,2.29881 c -0.73397,-0.7056 -5.1673,-1.5483 -6.89761,-0.0685 l -0.21392,-0.18202 4.12484,-5.05264 c -0.75878,-0.40893 -1.4691,-0.63704 -2.46427,-0.77297 V 9.67161 l 4.88245,-2.84484 c 1.04244,0.97862 4.50425,2.07069 5.71215,1.11572 z m -1.82486,1.63812 c -1.39819,0.7966 -4.5988,0.59212 -5.35758,-0.091 v 3.5729 c 0.56851,0.1371 1.3982,0.36403 1.77758,0.54603 z m -2.91576,6.75932 c -0.33212,-0.29667 -1.73032,-0.68315 -2.22907,-0.82025 l -3.41335,4.14258 c 1.63577,-1.00225 4.07757,-1.45729 5.64242,-0.66069 z m -36.60007,-5.84926 c -0.40303,-0.63705 -0.92543,-1.20554 -1.44665,-1.72912 l 2.82121,-2.11679 c 0.85333,0.88761 1.70667,1.86622 2.34726,2.84484 l 4.24304,-2.84484 c 0.87698,0.88761 1.73031,1.77521 2.3709,2.84484 l 4.2655,-2.84484 c 0.83088,0.84269 1.66058,1.70666 2.37091,2.84484 v 9.17041 c 0.49876,0.31911 1.25636,0.70559 2.13333,1.00225 l -2.48909,2.23026 c -1.75276,-0.86516 -2.93822,-1.5483 -3.36606,-2.09433 v -8.85248 c -0.18911,-0.63705 -0.99517,-1.38756 -1.7055,-1.91115 l -1.20909,0.81906 v 8.80639 c 0.42549,0.29664 0.94789,0.68313 1.77759,1.00225 l -2.13334,2.23026 c -1.28001,-0.54605 -2.86849,-1.47975 -3.3897,-2.07188 v -8.87493 c -0.19029,-0.70561 -1.04363,-1.47856 -1.68304,-1.91115 l -1.18545,0.81906 v 8.80639 c 0.40303,0.29664 1.16063,0.77414 1.82486,1.00225 l -2.13333,2.23026 c -1.23273,-0.54605 -2.53637,-1.22918 -3.41335,-2.07188 z M 52.98008,4.48299 c 0,-0.7966 -0.16665,-1.82013 -0.99635,-2.54819 l 0.0721,-0.1371 c 0.90061,0.27302 1.65939,1.16063 1.89577,1.82015 0.59214,-1.97853 2.63092,-2.82122 4.50425,-2.82122 0.28365,0 0.54485,0.0225 0.80605,0.0685 v 0.091 c -1.51756,0.36402 -2.56,1.34264 -2.56,3.82228 V 18.8419 c 0.40184,0.29665 1.39819,0.77414 2.15698,1.00225 l -2.4891,2.23026 c -1.5412,-0.7056 -2.72665,-1.4112 -3.3897,-2.07188 z M 40.22732,10.76364 46.2243,6.82672 c 1.6594,0.84269 3.08123,1.70666 4.10122,2.54936 v 9.46589 c 0.4503,0.3652 1.75394,0.91124 2.15697,1.00225 L 49.9934,22.07448 C 48.68976,21.5048 47.17219,20.61718 46.6037,20.0026 l -2.65575,2.04942 C 42.62067,21.59581 41.36431,20.89021 40.22732,20.0026 Z M 37.24064,22.07448 C 36.05519,21.75536 34.77519,20.91385 33.84975,20.0026 V 11.12767 C 33.61337,10.35469 33.13943,9.74011 32.40428,9.14798 l -1.20909,0.8876 v 8.80639 c 0.5685,0.43257 1.37456,0.75169 2.13334,1.00225 l -2.46545,2.23026 C 29.70245,21.55089 28.4449,20.95876 27.47337,20.0026 l -2.96304,2.07188 c -1.4691,-0.29666 -4.69334,-2.45837 -5.54668,-3.71001 -1.37455,1.09209 -2.82121,2.45837 -4.19576,3.68755 -1.13818,-0.72924 -3.10487,-1.6854 -6.37638,-1.6854 -3.98303,0 -8.08306,2.00333 -8.08306,4.55152 0,1.68421 1.20791,2.2078 2.72548,2.2078 0.11819,0.091 0.0473,0.31912 -0.0709,0.34157 C 0.99516,27.46751 0,26.37425 0,24.85077 c 0,-4.30213 6.0679,-7.60084 9.57698,-7.60084 0.54486,-0.61458 1.04244,-1.6842 1.04244,-3.9381 V 6.96381 c 0,-1.02471 0.28484,-1.45729 0.45031,-1.59321 -0.0709,0.13592 -0.14183,0.50113 -0.14183,1.66177 v 6.48512 c 0,2.04824 -0.52122,3.11786 -1.04363,3.73244 0.16665,-0.046 0.56968,-0.0685 0.8297,-0.0685 0.94907,-1.02471 0.94907,-2.70774 0.94907,-4.02793 V 6.82676 c 0,-2.11561 0.75879,-2.91223 2.13334,-4.2324 l 0.92425,-0.88762 h -0.0946 c -1.6594,1.18427 -3.03514,2.11679 -5.14483,2.11679 -1.75395,0 -3.19942,-0.72805 -4.78791,-0.72805 -1.20909,0 -1.89577,0.59096 -2.13333,0.72805 0.68786,-1.16062 2.51273,-3.77736 5.30911,-3.77736 2.13453,0 3.12969,0.86397 5.16848,0.86397 1.13817,0 2.20425,-0.15956 3.10486,-0.59095 l 0.0957,0.091 c -0.54604,0.93252 -0.85334,2.18417 -0.85334,3.86838 v 4.2785 l 5.78307,-8.21542 c 0.68787,0.36401 1.44665,0.86515 2.72665,0.86515 1.5873,0 2.25153,-0.47868 2.79639,-0.77415 l 0.0957,0.0449 c -0.30848,1.02471 -1.89696,3.50434 -4.40969,3.50434 -1.37456,0 -2.417,-0.56849 -2.84485,-0.81906 l -2.77275,3.93811 c 1.11454,0.75052 2.60728,2.04707 3.57881,2.93468 0,0 0.30848,1.57075 1.04362,3.73127 0.28366,0.82025 0.94789,3.09541 1.49275,3.80101 0.66423,0.8427 2.03878,2.11679 4.59879,2.11679 V 4.41448 c 0,-1.38756 -0.4503,-2.04707 -0.90061,-2.47964 V 1.79773 c 0.52122,0.13711 1.51757,0.72925 1.96787,1.82014 0.35576,-1.41001 1.96669,-2.82121 4.50425,-2.82121 0.1891,0 0.3782,0.0225 0.73396,0.0461 V 0.97868 C 32.19025,1.27416 31.19508,2.43597 31.19508,4.84707 V 9.6716 l 4.07758,-2.84485 c 0.99516,0.88761 1.87214,2.09434 2.2988,2.84485 v 9.17041 c 0.61696,0.41011 1.44666,0.79659 2.15698,1.00225 z M 81.14134,10.67263 C 80.8565,10.17269 80.09772,9.48954 79.50558,8.89741 l 3.05759,-2.00214 c 0.85334,0.7966 1.63576,1.68421 2.29999,2.77629 v 13.69946 c -3.86483,0 -5.68969,4.80209 -12.30364,4.80209 -3.86365,0 -5.83034,-1.75276 -5.83034,-3.86837 0,-1.66177 1.51639,-2.91341 3.34125,-2.91341 2.03879,0 3.03514,0.95616 3.55636,1.68422 l -0.14183,0.0673 c -0.30848,-0.29548 -0.75879,-0.65951 -1.61212,-0.65951 -0.9018,0 -1.73031,0.65951 -1.73031,1.68422 0,1.5932 1.89577,2.98076 4.55152,2.98076 2.51154,0 6.44729,-1.66058 6.44729,-5.029 z m -37.19339,8.14688 c 0.26121,0.47748 1.37574,1.06963 2.27635,1.06963 0.11819,0 0.26002,-0.0225 0.3794,-0.045 V 11.12759 C 46.10493,10.6962 45.18068,9.94451 43.94795,9.74004 Z M 17.35153,19.29699 18.82182,18.069 c -0.73514,-1.95724 -1.3521,-3.75492 -1.82604,-5.75706 -0.3073,-0.38767 -1.11336,-1.20673 -1.61094,-1.5483 v 1.22918 c 0,2.61674 -1.16181,4.16385 -3.81755,5.25711 3.72182,0.13592 5.23938,1.66058 5.78424,2.04706 M 82.63408,6.16721 C 81.82921,5.32569 80.97469,4.48299 80.12136,3.68639 c 0.85333,-0.77297 1.70785,-1.59202 2.51272,-2.41227 0.87698,0.72924 1.75514,1.5483 2.58365,2.41227 -0.82851,0.91007 -1.70667,1.75277 -2.58365,2.48082"
     id="path370964" />
</svg>
